<?xml version="1.0" encoding="utf-8"?>
<!-- Generator: Adobe Illustrator 22.1.0, SVG Export Plug-In . SVG Version: 6.00 Build 0)  -->
<svg version="1.1" id="Layer_1" xmlns="http://www.w3.org/2000/svg" xmlns:xlink="http://www.w3.org/1999/xlink" x="0px" y="0px"
	 viewBox="0 0 114 26" style="enable-background:new 0 0 114 26;" xml:space="preserve">
<style type="text/css">
	.st0{fill:#FFFFFF;}
</style>
<g>
	<polygon class="st0" points="11.7,23.7 11.7,15.1 7.7,15.1 7.7,23.7 2.2,23.7 2.2,2.3 7.7,2.3 7.7,10.1 11.7,10.1 11.7,2.3 
		17.2,2.3 17.2,23.7 	"/>
	<polygon class="st0" points="7.7,23.7 7.7,2.3 2.2,2.3 	"/>
	<polyline class="st0" points="28.3,23.8 28.3,2.3 22.8,2.3 22.8,23.8 28.4,23.8 	"/>
	<path class="st0" d="M45.4,13c0-2.3-0.8-3.9-2.4-4.9c-0.8-0.5-1.6-0.7-2.5-0.7h-2.3v11.2h2.3c0.8,0,1.6-0.2,2.4-0.7
		C44.5,16.9,45.4,15.3,45.4,13 M49.9,13c0,4.4-1.6,7.6-4.9,9.5c-1.5,0.9-3.1,1.3-4.8,1.3h-6.6V2.2h6.6c1.7,0,3.4,0.5,4.9,1.4
		C48.2,5.6,49.9,8.7,49.9,13"/>
	<polygon class="st0" points="39.2,23.7 39.2,2.3 33.6,2.3 	"/>
	<line class="st0" x1="54.1" y1="23.7" x2="54.1" y2="2.2"/>
	<polygon class="st0" points="59.8,23.7 59.8,2.3 54.1,2.3 	"/>
	<polygon class="st0" points="89.6,23.7 74.6,23.8 74.6,2.3 89.6,2.3 89.6,7 80.1,7 80.1,10.2 84.8,10.2 84.8,15.1 80.1,15.1 
		80,18.9 89.6,18.9 	"/>
	<polygon class="st0" points="80.2,23.8 80.2,2.3 74.6,2.3 	"/>
	<polygon class="st0" points="111.8,23.7 107.1,23.7 100.2,11.6 100.2,23.7 94.5,23.7 94.5,2.2 100.2,2.2 106.9,14.1 106.9,2.2 
		111.8,2.2 	"/>
	<polygon class="st0" points="100.1,23.7 100.2,2.2 94.5,2.2 	"/>
	<path class="st0" d="M65.9,13c0-2.3-0.8-3.9-2.4-4.9c-0.8-0.5-1.6-0.7-2.5-0.7h-2.3v11.2H61c0.8,0,1.6-0.2,2.4-0.7
		C65.1,16.9,65.9,15.3,65.9,13 M70.4,13c0,4.4-1.6,7.6-4.9,9.5c-1.5,0.9-3.1,1.3-4.8,1.3h-6.6V2.3h6.6c1.7,0,3.4,0.5,4.9,1.4
		C68.8,5.6,70.4,8.7,70.4,13"/>
</g>
</svg>
